<svg xmlns="http://www.w3.org/2000/svg" viewBox="0 0 100 100" width="100" height="100" role="img" aria-label="한범 - 유아">
  <!-- 유아 변주: hanbeom-happy 와 같은 기하구조. 줄무늬 전량 제거 · 파스텔 팔레트 · 볼터치 · 귀를 짧고 둥글게 -->
  <path d="M22 33 C19 22 23 15 28 14.5 C33.5 17 36.5 24 37.5 31 Z" fill="#FF9F5A"/>
  <path d="M78 33 C81 22 77 15 72 14.5 C66.5 17 63.5 24 62.5 31 Z" fill="#FF9F5A"/>
  <path d="M25.2 30 C23.6 23.5 25.2 19.5 27.6 19 C30 20.4 31.7 24.4 32.1 28.4 Z" fill="#FFE6D2"/>
  <path d="M74.8 30 C76.4 23.5 74.8 19.5 72.4 19 C70 20.4 68.3 24.4 67.9 28.4 Z" fill="#FFE6D2"/>
  <!-- 머리: 초등판(rx34 ry32)보다 더 동글게 -->
  <ellipse cx="50" cy="57" rx="34" ry="33.4" fill="#FFD09B"/>
  <path d="M50 88c-17 0-26-8-26-8 5-10 15.5-14.5 26-14.5S71 70 76 80c0 0-9 8-26 8z" fill="#FFFCF6"/>
  <!-- 볼터치 -->
  <ellipse cx="27.5" cy="64.5" rx="7.2" ry="5" fill="#FFB4C4" opacity=".72"/>
  <ellipse cx="72.5" cy="64.5" rx="7.2" ry="5" fill="#FFB4C4" opacity=".72"/>
  <!-- 줄무늬 없음 (초등부터 등장) -->
  <circle cx="38" cy="53" r="7.6" fill="#4A362A"/><circle cx="62" cy="53" r="7.6" fill="#4A362A"/>
  <circle cx="40.8" cy="50.1" r="2.9" fill="#fff"/><circle cx="64.8" cy="50.1" r="2.9" fill="#fff"/>
  <path d="M50 64.5c2.9 0 4.6 1 4.6 2.4 0 1.8-2 3.6-4.6 3.6s-4.6-1.8-4.6-3.6c0-1.4 1.7-2.4 4.6-2.4z" fill="#F08AA3"/>
  <path d="M50 70.5v2.4M50 72.9c0 3.6-4.6 3.6-4.6 3.6M50 72.9c0 3.6 4.6 3.6 4.6 3.6"
        stroke="#4A362A" stroke-width="2.6" fill="none" stroke-linecap="round"/>
</svg>
